<?xml version="1.0" encoding="UTF-8"?>
<!DOCTYPE svg PUBLIC "-//W3C//DTD SVG 1.1//EN" "http://www.w3.org/Graphics/SVG/1.1/DTD/svg11.dtd">
<!-- Creator: CorelDRAW -->
<svg xmlns="http://www.w3.org/2000/svg" xml:space="preserve" width="338.667mm" height="338.667mm" version="1.1" style="shape-rendering:geometricPrecision; text-rendering:geometricPrecision; image-rendering:optimizeQuality; fill-rule:evenodd; clip-rule:evenodd"
viewBox="0 0 33866.66 33866.66"
 xmlns:xlink="http://www.w3.org/1999/xlink"
 xmlns:xodm="http://www.corel.com/coreldraw/odm/2003">
 <defs>
  <style type="text/css">
   <![CDATA[
    .fil0 {fill:black}
   ]]>
  </style>
 </defs>
 <g id="Camada_x0020_1">
  <metadata id="CorelCorpID_0Corel-Layer"/>
  <path class="fil0" d="M12739.82 8523.25c964.73,-671.26 2363.91,-1365.19 3971.69,-1303.12 0,0 -2712.79,2174.79 -2541.92,3026.2 2007.62,-2057.84 4852.22,-2936.16 7679.72,-2915.89 1219.9,-2629.06 3067.18,-5218.69 5878.37,-4728.98 0,0 829.21,3332.87 584.58,6444.13 2097.4,1234.07 3554.43,3062.83 3653.28,5250.24 0,0 -3012.86,-1481.57 -4817.46,-1497.37 -8.81,12.04 -17.71,24.01 -26.65,35.95 1341.38,64.81 5042.96,850.52 4620.65,7596.66 -2285.07,-2325.28 -4918.84,-2908.72 -5808.86,-3065.96 1660.82,2233.5 3271.26,1850.01 4693.25,2077.79 -1216.26,1898.04 -3205.74,1654.13 -4770,1642.52 344.28,363.42 3104.02,1363.46 4862.25,3022.34 -2505.27,-807.81 -3809.76,742.29 -4494.41,1350.88 58.21,931.54 1336.15,3193.67 2619.97,3356.13 2482.64,314.18 3113.57,-1324.54 3232.61,-2627.54 36.65,137.09 64.46,276.79 81.81,419.35 387.18,3183.46 -1419.61,5592.56 -2624.18,5205.38 0,0 -559.28,2366.07 -2366.12,1677.78 -1806.83,-688.29 -10542.55,-2758.68 -12174.65,-2796.28 0,0 -4086.93,-1118.5 -4517.09,1720.81 0,0 -774.36,-2495.12 516.23,-3613.67 0,0 -4603.16,-430.27 -5162.38,3398.54 0,0 -3054.35,-4043.89 -301.11,-6194.87 0,0 -2366.11,387.18 -4947.31,-2581.19 0,0 3659.2,565.88 5076.37,-1548.72 0,0 -3140.53,-86.02 -4861.29,-2925.34 0,0 4977.39,291.4 4990.35,-1118.5 0,0 -2495.13,-86.07 -3871.79,-1591.76 0,0 2624.17,172.1 2925.33,-1161.53 301.16,-1333.64 -314.72,-2228.52 -473.2,-2882.36 -172.09,-710.03 86.02,-8905.07 6409.95,-11529.3 0,0 1187.33,4441.71 1962.01,7857.68zm2085.63 11848.66l0 -523.57 523.57 0 0 523.57 -523.57 0zm-523.63 -523.57l0 -1308.96 523.63 -0.05 0 1308.96 -523.63 0.05zm2094.39 -785.39l0 -1047.2 523.58 0 0 1047.2 -523.58 0zm-523.62 -1047.2l0 -523.57 523.62 0 0 523.57 -523.62 0zm-3141.54 523.58l0 -523.58 523.62 0 0 523.58 -523.62 0zm-523.57 -523.58l0 -523.57 523.57 0 0 523.57 -523.57 0zm2356.15 -1832.58l0 -523.57 523.57 0 0 523.57 -523.57 0zm-2028.88 719.94l916.23 0 0 -916.29 -916.23 0.05 0 916.29 0 -0.05zm-327.27 327.26l0 -1570.77 1570.77 0 0 1570.77 -1570.77 0zm327.27 2814.27l916.23 0 0 -916.29 -916.23 0.05 0 916.29 0 -0.05zm-327.27 327.27l0 -1570.77 1570.77 0 0 1570.77 -1570.77 0zm3468.8 -3468.8l916.24 0 0 -916.29 -916.24 0.05 0 916.29 0 -0.05zm-327.26 327.26l0 -1570.77 1570.77 0 0 1570.77 -1570.77 0zm523.57 3141.54l0 -785.39 -523.57 0 0 -523.57 1047.19 0 0 785.39 523.58 0 0 523.57 -1047.2 0zm-1047.14 -1832.58l0 -523.58 1047.14 0 0 523.58 -1047.14 0zm-1047.2 0l0 -523.58 -523.58 0 0 -523.57 1570.78 0 0 523.57 -523.63 0 0 523.58 -523.57 0zm261.81 -1308.96l0 -1047.2 523.57 0 0 523.57 523.57 0.05 0 523.58 -1047.14 0zm-1243.56 -589.03l0 -392.71 392.72 0 0 392.66 -392.72 0.05zm0 3141.54l0 -392.71 392.72 0 0 392.66 -392.72 0.05zm3141.55 -3141.54l0 -392.71 392.71 0 0 392.66 -392.71 0.05z"/>
 </g>
</svg>
